{
  "asset": {
    "generator": "Khronos glTF Blender I/O v3.3.32",
    "version": "2.0"
  },
  "scene": 0,
  "scenes": [
    {
      "name": "Scene",
      "nodes": [
        8
      ]
    }
  ],
  "nodes": [
    {
      "mesh": 0,
      "name": "Plane_Plane_002_carton_BOTTOM_0"
    },
    {
      "children": [
        0
      ],
      "name": "Plane_Plane_002_carton.001",
      "translation": [
        0,
        0.050461195409297943,
        0
      ]
    },
    {
      "mesh": 1,
      "name": "Plane_Plane_002_Material_001_TOP_0"
    },
    {
      "children": [
        2
      ],
      "name": "Plane_Plane_002_Material_001.001",
      "translation": [
        0,
        11.550604820251465,
        -9.85886001586914
      ]
    },
    {
      "children": [
        1,
        3
      ],
      "name": "BOX.001",
      "translation": [
        0,
        0.05046120285987854,
        0
      ]
    },
    {
      "children": [
        4
      ],
      "name": "RootNode.001"
    },
    {
      "children": [
        5
      ],
      "name": "Object_2.003"
    },
    {
      "children": [
        6
      ],
      "name": "BOX nike.fbx.001",
      "rotation": [
        0.7071068286895752,
        0,
        0,
        0.70710670948028564
      ],
      "scale": [
        0.010000000707805157,
        0.010000000707805157,
        0.010000000707805157
      ]
    },
    {
      "children": [
        7
      ],
      "name": "Sketchfab_model",
      "rotation": [
        -0.7071068286895752,
        0,
        0,
        0.70710670948028564
      ],
      "scale": [
        5.2471170425415039,
        5.2471170425415039,
        5.2471170425415039
      ]
    }
  ],
  "animations": [
    {
      "channels": [
        {
          "sampler": 0,
          "target": {
            "node": 2,
            "path": "translation"
          }
        },
        {
          "sampler": 1,
          "target": {
            "node": 2,
            "path": "rotation"
          }
        }
      ],
      "name": "Plane_Plane_002_Material_001_TOP_0Action",
      "samplers": [
        {
          "input": 8,
          "interpolation": "LINEAR",
          "output": 9
        },
        {
          "input": 8,
          "interpolation": "LINEAR",
          "output": 10
        }
      ]
    }
  ],
  "materials": [
    {
      "doubleSided": true,
      "name": "BOTTOM.002",
      "normalTexture": {
        "index": 0
      },
      "pbrMetallicRoughness": {
        "baseColorTexture": {
          "index": 1
        },
        "metallicFactor": 0,
        "metallicRoughnessTexture": {
          "index": 2
        }
      }
    },
    {
      "doubleSided": true,
      "name": "material.002",
      "normalTexture": {
        "index": 3
      },
      "pbrMetallicRoughness": {
        "baseColorTexture": {
          "index": 4
        },
        "metallicFactor": 0,
        "metallicRoughnessTexture": {
          "index": 5
        }
      }
    }
  ],
  "meshes": [
    {
      "name": "Plane_Plane_002_carton_BOTTOM_0.002",
      "primitives": [
        {
          "attributes": {
            "POSITION": 0,
            "NORMAL": 1,
            "TEXCOORD_0": 2
          },
          "indices": 3,
          "material": 0
        }
      ]
    },
    {
      "name": "Plane_Plane_002_Material_001_TOP_0.002",
      "primitives": [
        {
          "attributes": {
            "POSITION": 4,
            "NORMAL": 5,
            "TEXCOORD_0": 6
          },
          "indices": 7,
          "material": 1
        }
      ]
    }
  ],
  "textures": [
    {
      "sampler": 0,
      "source": 0
    },
    {
      "sampler": 0,
      "source": 1
    },
    {
      "sampler": 0,
      "source": 2
    },
    {
      "sampler": 0,
      "source": 3
    },
    {
      "sampler": 0,
      "source": 4
    },
    {
      "sampler": 0,
      "source": 5
    }
  ],
  "images": [
    {
      "name": "Image_5",
      "uri": "box_image0.png"
    },
    {
      "name": "Image_3",
      "uri": "box_image1.png"
    },
    {
      "name": "Image_4",
      "uri": "box_image2.png"
    },
    {
      "name": "Image_2",
      "uri": "box_image3.png"
    },
    {
      "name": "Image_0",
      "uri": "box_image4.png"
    },
    {
      "name": "Image_1",
      "uri": "box_image5.png"
    }
  ],
  "accessors": [
    {
      "bufferView": 0,
      "componentType": 5126,
      "count": 1910,
      "max": [
        16.001247406005859,
        11.60521125793457,
        9.95028305053711
      ],
      "min": [
        -15.998954772949219,
        -2.6069119485327974E-06,
        -9.932368278503418
      ],
      "type": "VEC3"
    },
    {
      "bufferView": 1,
      "componentType": 5126,
      "count": 1910,
      "type": "VEC3"
    },
    {
      "bufferView": 2,
      "componentType": 5126,
      "count": 1910,
      "type": "VEC2"
    },
    {
      "bufferView": 3,
      "componentType": 5123,
      "count": 2958,
      "type": "SCALAR"
    },
    {
      "bufferView": 4,
      "componentType": 5126,
      "count": 542,
      "max": [
        16.331096649169922,
        0.21959398686885834,
        20.331729888916016
      ],
      "min": [
        -16.331096649169922,
        -2.4712605476379395,
        -0.07350863516330719
      ],
      "type": "VEC3"
    },
    {
      "bufferView": 5,
      "componentType": 5126,
      "count": 542,
      "type": "VEC3"
    },
    {
      "bufferView": 6,
      "componentType": 5126,
      "count": 542,
      "type": "VEC2"
    },
    {
      "bufferView": 7,
      "componentType": 5123,
      "count": 1182,
      "type": "SCALAR"
    },
    {
      "bufferView": 8,
      "componentType": 5126,
      "count": 26,
      "max": [
        1.0416666666666667
      ],
      "min": [
        0
      ],
      "type": "SCALAR"
    },
    {
      "bufferView": 9,
      "componentType": 5126,
      "count": 26,
      "type": "VEC3"
    },
    {
      "bufferView": 10,
      "componentType": 5126,
      "count": 26,
      "type": "VEC4"
    }
  ],
  "bufferViews": [
    {
      "buffer": 0,
      "byteLength": 22920,
      "byteOffset": 0,
      "target": 34962
    },
    {
      "buffer": 0,
      "byteLength": 22920,
      "byteOffset": 22920,
      "target": 34962
    },
    {
      "buffer": 0,
      "byteLength": 15280,
      "byteOffset": 45840,
      "target": 34962
    },
    {
      "buffer": 0,
      "byteLength": 5916,
      "byteOffset": 61120,
      "target": 34963
    },
    {
      "buffer": 0,
      "byteLength": 6504,
      "byteOffset": 67036,
      "target": 34962
    },
    {
      "buffer": 0,
      "byteLength": 6504,
      "byteOffset": 73540,
      "target": 34962
    },
    {
      "buffer": 0,
      "byteLength": 4336,
      "byteOffset": 80044,
      "target": 34962
    },
    {
      "buffer": 0,
      "byteLength": 2364,
      "byteOffset": 84380,
      "target": 34963
    },
    {
      "buffer": 0,
      "byteLength": 104,
      "byteOffset": 86744
    },
    {
      "buffer": 0,
      "byteLength": 312,
      "byteOffset": 86848
    },
    {
      "buffer": 0,
      "byteLength": 416,
      "byteOffset": 87160
    }
  ],
  "samplers": [
    {
      "magFilter": 9729,
      "minFilter": 9987
    }
  ],
  "buffers": [
    {
      "byteLength": 87576,
      "uri": "box.bin"
    }
  ]
}