<svg width="100%" height="100%" viewBox="0 0 1000 1499" version="1.1" xmlns="http://www.w3.org/2000/svg" xmlns:xlink="http://www.w3.org/1999/xlink" xml:space="preserve" xmlns:serif="http://www.serif.com/" style="fill-rule:evenodd;clip-rule:evenodd;stroke-linejoin:round;stroke-miterlimit:2;">
    <g transform="matrix(1,0,0,1,312.255,503.43)">
        <path d="M0,495.78C0,599.252 83.882,683.134 187.346,683.134C290.818,683.134 374.7,599.252 374.7,495.78C374.7,392.312 290.818,308.43 187.346,308.43C83.874,308.43 0,392.312 0,495.78M21.304,-104.302C52.615,-44.564 115.224,-3.806 187.346,-3.806C463.267,-3.806 686.943,219.871 686.943,495.788C686.943,774.07 459.415,999.21 180.242,995.336C-85.815,991.636 -310.53,765.162 -312.244,499.074C-312.85,405.208 -287.551,317.293 -243.093,242.047C-210.113,186.22 -211.395,116.77 -244.139,60.811C-287.437,-13.165 -312.251,-99.268 -312.251,-191.163L-312.251,-503.43L686.951,-503.43L686.951,-191.171L74.905,-191.171C30.296,-191.171 0.599,-143.821 21.304,-104.302" style="fill:white;fill-rule:nonzero;"/>
    </g>
</svg>
