{
  "accessors": [
    {
      "bufferView": 2,
      "componentType": 5126,
      "count": 6890,
      "max": [
        213.76861572265625,
        95.0217056274414,
        173.4701690673828
      ],
      "min": [
        -171.2166290283203,
        -62.130741119384766,
        1.8858531713485718
      ],
      "type": "VEC3"
    },
    {
      "bufferView": 2,
      "byteOffset": 82680,
      "componentType": 5126,
      "count": 6890,
      "max": [
        0.9983949065208435,
        0.9999223351478577,
        0.9999533891677856
      ],
      "min": [
        -0.9999274611473083,
        -0.9999908208847046,
        -0.999997615814209
      ],
      "type": "VEC3"
    },
    {
      "bufferView": 3,
      "componentType": 5126,
      "count": 6890,
      "max": [
        0.999208390712738,
        0.9995958209037781,
        0.9997525215148926,
        1.0
      ],
      "min": [
        -0.9959887862205505,
        -0.9999412894248962,
        -0.9994597434997559,
        -1.0
      ],
      "type": "VEC4"
    },
    {
      "bufferView": 1,
      "componentType": 5126,
      "count": 6890,
      "max": [
        0.9979317784309387,
        0.9288014769554138
      ],
      "min": [
        0.0020436893682926893,
        0.001994180493056774
      ],
      "type": "VEC2"
    },
    {
      "bufferView": 0,
      "componentType": 5125,
      "count": 35922,
      "type": "SCALAR"
    }
  ],
  "asset": {
    "extras": {
      "author": "3djon (https://sketchfab.com/3djon)",
      "license": "CC-BY-4.0 (http://creativecommons.org/licenses/by/4.0/)",
      "source": "https://sketchfab.com/3d-models/nike-sb-photoscan-2ce1c205c1f94c7db2d1af072e8b75b4",
      "title": "Nike SB Photoscan"
    },
    "generator": "Sketchfab-12.65.0",
    "version": "2.0"
  },
  "bufferViews": [
    {
      "buffer": 0,
      "byteLength": 143688,
      "name": "floatBufferViews",
      "target": 34963
    },
    {
      "buffer": 0,
      "byteLength": 55120,
      "byteOffset": 143688,
      "byteStride": 8,
      "name": "floatBufferViews",
      "target": 34962
    },
    {
      "buffer": 0,
      "byteLength": 165360,
      "byteOffset": 198808,
      "byteStride": 12,
      "name": "floatBufferViews",
      "target": 34962
    },
    {
      "buffer": 0,
      "byteLength": 110240,
      "byteOffset": 364168,
      "byteStride": 16,
      "name": "floatBufferViews",
      "target": 34962
    }
  ],
  "buffers": [
    {
      "byteLength": 474408,
      "uri": "scene.bin"
    }
  ],
  "images": [
    {
      "uri": "textures/Scene_-_Root_baseColor.jpeg"
    },
    {
      "uri": "textures/Scene_-_Root_metallicRoughness.png"
    },
    {
      "uri": "textures/Scene_-_Root_normal.png"
    }
  ],
  "materials": [
    {
      "name": "Scene_-_Root",
      "normalTexture": {
        "index": 2,
        "scale": 0.6236661585365854
      },
      "occlusionTexture": {
        "index": 1
      },
      "pbrMetallicRoughness": {
        "baseColorTexture": {
          "index": 0
        },
        "metallicFactor": 0.483422256097561,
        "metallicRoughnessTexture": {
          "index": 1
        }
      }
    }
  ],
  "meshes": [
    {
      "name": "prop_nike_a_01__0",
      "primitives": [
        {
          "attributes": {
            "NORMAL": 1,
            "POSITION": 0,
            "TANGENT": 2,
            "TEXCOORD_0": 3
          },
          "indices": 4,
          "material": 0,
          "mode": 4
        }
      ]
    }
  ],
  "nodes": [
    {
      "children": [
        1
      ],
      "matrix": [
        0.03232831135392189,
        -5.1987888850263e-18,
        -5.1987888850263014e-18,
        0.0,
        -5.198788885026301e-18,
        1.9795382374486895e-18,
        -0.03232831135392189,
        0.0,
        5.198788885026301e-18,
        0.03232831135392189,
        1.9795382374486895e-18,
        0.0,
        -2.220446049250313e-16,
        -4.440892098500628e-16,
        7.771561172376095e-16,
        1.0
      ],
      "name": "Sketchfab_model"
    },
    {
      "children": [
        2
      ],
      "matrix": [
        1.0,
        0.0,
        0.0,
        0.0,
        0.0,
        0.0,
        1.0,
        0.0,
        0.0,
        -1.0,
        0.0,
        0.0,
        0.0,
        0.0,
        0.0,
        1.0
      ],
      "name": "prop_nike_a_01.FBX"
    },
    {
      "children": [
        3
      ],
      "name": "RootNode"
    },
    {
      "children": [
        4
      ],
      "matrix": [
        0.02548624947667122,
        0.0,
        0.0,
        0.0,
        0.0,
        5.659084196068247e-18,
        -0.02548624947667122,
        0.0,
        0.0,
        0.02548624947667122,
        5.659084196068247e-18,
        0.0,
        0.0,
        0.0,
        0.0,
        1.0
      ],
      "name": "prop_nike_a_01"
    },
    {
      "mesh": 0,
      "name": "prop_nike_a_01__0"
    }
  ],
  "samplers": [
    {
      "magFilter": 9729,
      "minFilter": 9987,
      "wrapS": 10497,
      "wrapT": 10497
    }
  ],
  "scene": 0,
  "scenes": [
    {
      "name": "Sketchfab_Scene",
      "nodes": [
        0
      ]
    }
  ],
  "textures": [
    {
      "sampler": 0,
      "source": 0
    },
    {
      "sampler": 0,
      "source": 1
    },
    {
      "sampler": 0,
      "source": 2
    }
  ]
}
